<?xml version="1.0" encoding="UTF-8"?>
<svg id="Calque_1" data-name="Calque 1" xmlns="http://www.w3.org/2000/svg" viewBox="0 0 141.45 86.04">
  <defs>
    <style>
      .cls-1 {
        fill: #fff;
      }

      .cls-2 {
        fill: #001c2e;
      }
    </style>
  </defs>
  <path class="cls-1" d="M11.67,38.22c0-2.45-.34-4.26-1.01-5.44-.67-1.18-2.02-1.76-4.03-1.76h-.72v-2.16H14.55c1.73,0,3.05,.29,3.96,.86,.91,.58,1.56,1.52,1.94,2.84,.38,1.32,.58,3.2,.58,5.65v11.88h19.44V28.86h9.36v38.16c0,2.45,.34,4.26,1.01,5.44,.67,1.18,2.02,1.76,4.03,1.76h.72v2.16h-8.64c-1.73,0-3.05-.28-3.96-.83-.91-.55-1.56-1.49-1.94-2.81-.38-1.32-.58-3.23-.58-5.72v-13.68H21.03v23.04H11.67V38.22Z"/>
  <path class="cls-1" d="M106.46,75.98c-2.28-2.42-3.42-6.37-3.42-11.84v-25.49l-15.77,37.73h-2.38l-19.3-39.17v39.17h-3.6V28.86h8.78l17.42,35.35,14.76-35.35h9.43v35.28c0,4.51,.38,7.82,1.15,9.94,.77,2.11,2.13,3.36,4.1,3.74v1.8c-5.18,0-8.92-1.21-11.2-3.64Z"/>
  <path class="cls-1" d="M117.66,77.82s14.59,1.16,14.59-3.35,0,5.15,0,5.15h-14.59"/>
  <path class="cls-1" d="M117.49,77.81h0v1.8h-.33c-.41,0-.72-.49-.72-.9h0c0-.59,.46-.9,1.05-.9Z"/>
  <rect class="cls-2" x="109.31" y="10.05" width="16.7" height="16.7" transform="translate(21.45 88.59) rotate(-45)"/>
  <rect class="cls-2" x="122.58" y="4.18" width="9.3" height="9.3" transform="translate(118.4 136.06) rotate(-90)"/>
  <rect class="cls-2" x="132.09" y="3.64" width="5.25" height="5.25" transform="translate(225.54 105.95) rotate(-135)"/>
</svg>